{"title":"Logan Lucky 2017 Movies HD Cam XviD Clean Audio New +Sample ☻rDX","magnet":"magnet:?xt=urn:btih:071d6079e6ad36db7d3c6355af7f4636f4ed41b9&dn=Logan+Lucky+2017+Movies+HD+Cam+XviD+Clean+Audio+New+%2BSample+%E2%98%BBrDX&tr=udp%3A%2F%2Ftracker.leechers-paradise.org%3A6969&tr=udp%3A%2F%2Fzer0day.ch%3A1337&tr=udp%3A%2F%2Fopen.demonii.com%3A1337&tr=udp%3A%2F%2Ftracker.coppersurfer.tk%3A6969&tr=udp%3A%2F%2Fexodus.desync.com%3A6969","uploader":"basicssom","categoryP":"video","categoryS":"movies","size":"738604806","seeders":"0","leechers":"0","description":"----------------------------------------------------------------\r\nLogan Lucky 2017 Movies HD Cam XviD Clean Audio AAC New Source with Sample &#x263B;rDX&#x263B;\r\n\r\nSCREEN SHOTS &amp; POSTER:\r\n   <a href=\"\nhttp://postimage.co.nr/2017/8/american/index.html\" rel=\"nofollow\" target=\"_NEW\">\nhttp://postimage.co.nr/2017/8/american/index.html</a>  <a href=\"\nhttp://postimage.co.nr/2017/8/american/1.html\" rel=\"nofollow\" target=\"_NEW\">\nhttp://postimage.co.nr/2017/8/american/1.html</a>   <a href=\"\nhttp://postimage.co.nr/2017/8/american/2.html\" rel=\"nofollow\" target=\"_NEW\">\nhttp://postimage.co.nr/2017/8/american/2.html</a>   <a href=\"\nhttp://postimage.co.nr/2017/8/american/3.html\" rel=\"nofollow\" target=\"_NEW\">\nhttp://postimage.co.nr/2017/8/american/3.html</a>   <a href=\"\nhttp://postimage.co.nr/2017/8/american/4.html\" rel=\"nofollow\" target=\"_NEW\">\nhttp://postimage.co.nr/2017/8/american/4.html</a>   <a href=\"\nhttp://postimage.co.nr/2017/8/american/5.html\" rel=\"nofollow\" target=\"_NEW\">\nhttp://postimage.co.nr/2017/8/american/5.html</a>   <a href=\"\nhttp://postimage.co.nr/2017/8/american/6.html\" rel=\"nofollow\" target=\"_NEW\">\nhttp://postimage.co.nr/2017/8/american/6.html</a>   <a href=\"\nhttp://postimage.co.nr/2017/8/american/7.html\" rel=\"nofollow\" target=\"_NEW\">\nhttp://postimage.co.nr/2017/8/american/7.html</a>   <a href=\"\nhttp://postimage.co.nr/2017/8/american/8.html\" rel=\"nofollow\" target=\"_NEW\">\nhttp://postimage.co.nr/2017/8/american/8.html</a>   <a href=\"\nhttp://postimage.co.nr/2017/8/american/9.html\" rel=\"nofollow\" target=\"_NEW\">\nhttp://postimage.co.nr/2017/8/american/9.html</a>   <a href=\"\nhttp://postimage.co.nr/2017/8/american/10.html\" rel=\"nofollow\" target=\"_NEW\">\nhttp://postimage.co.nr/2017/8/american/10.html</a>\r\n\r\nFile size                                : 697 MiB\r\nDuration                                 : 1 h 58 min\r\nOverall bit rate mode                    : Constant\r\nOverall bit rate                         : 825 kb/s\r\nMovie name                               : Logan Lucky 2017 Movies HD Cam XviD Clean Audio AAC New Source &#x263B;rDX&#x263B;\r\n\r\nVideo\r\nID                                       : 2\r\nFormat                                   : AVC\r\nFormat/Info                              : Advanced Video Codec\r\nFormat profile                           : <a href=\"/cdn-cgi/l/email-protection\" class=\"__cf_email__\" data-cfemail=\"135e727a7d535f20\">[email&#xA0;protected]</a>\r\nFormat settings, CABAC                   : Yes\r\nFormat settings, ReFrames                : 2 frames\r\nFormat settings, GOP                     : M=1, N=12\r\nCodec ID                                 : V_MPEG4/ISO/AVC\r\nDuration                                 : 1 h 58 min\r\nBit rate mode                            : Constant\r\nBit rate                                 : 698 kb/s\r\nWidth                                    : 720 pixels\r\nHeight                                   : 304 pixels\r\nDisplay aspect ratio                     : 2.35:1\r\nFrame rate mode                          : Constant\r\nFrame rate                               : 29.970 (30000/1001) FPS\r\nColor space                              : YUV\r\nChroma subsampling                       : 4:2:0\r\nBit depth                                : 8 bits\r\nScan type                                : Progressive\r\nBits/(Pixel*Frame)                       : 0.106\r\nStream size                              : 575 MiB (82%)\r\nTitle                                    : &#x263B;rDX&#x263B;\r\nDefault                                  : Yes\r\nForced                                   : No\r\n\r\nAudio\r\nID                                       : 1\r\nFormat                                   : MPEG Audio\r\nFormat version                           : Version 1\r\nFormat profile                           : Layer 3\r\nMode                                     : Joint stereo\r\nMode extension                           : MS Stereo\r\nCodec ID                                 : A_MPEG/L3\r\nCodec ID/Hint                            : MP3\r\nDuration                                 : 1 h 58 min\r\nBit rate mode                            : Constant\r\nBit rate                                 : 128 kb/s\r\nChannel(s)                               : 2 channels\r\nSampling rate                            : 48.0 kHz\r\nCompression mode                         : Lossy\r\nStream size                              : 108 MiB (16%)\r\nTitle                                    : &#x263B;rDX&#x263B;\r\nDefault                                  : Yes\r\nForced                                   : No","last_updated":"2017-09-06T12:00:47.176Z","parsed":{"xt":"urn:btih:071d6079e6ad36db7d3c6355af7f4636f4ed41b9","dn":"Logan Lucky 2017 Movies HD Cam XviD Clean Audio New  Sample ☻rDX","tr":["udp://exodus.desync.com:6969","udp://open.demonii.com:1337","udp://tracker.coppersurfer.tk:6969","udp://tracker.leechers-paradise.org:6969","udp://zer0day.ch:1337"],"infoHash":"071d6079e6ad36db7d3c6355af7f4636f4ed41b9","infoHashBuffer":{"type":"Buffer","data":[7,29,96,121,230,173,54,219,125,60,99,85,175,127,70,54,244,237,65,185]},"name":"Logan Lucky 2017 Movies HD Cam XviD Clean Audio New  Sample ☻rDX","announce":["udp://exodus.desync.com:6969","udp://open.demonii.com:1337","udp://tracker.coppersurfer.tk:6969","udp://tracker.leechers-paradise.org:6969","udp://zer0day.ch:1337"],"urlList":[]}}